<svg version="1.2" xmlns="http://www.w3.org/2000/svg" viewBox="0 0 600 600" width="400" height="400">
	<title>logohome-svg</title>
	<style>
		.s0 { fill: #000000 } 
	</style>
	<g id="Layer">
		<path id="Layer" fill-rule="evenodd" class="s0" d="m300 4c252.5 0 261.7 0.1 265 1.8c8 4.3 14.9 17.7 19.2 37.3l2.3 10.4v493l-2.3 10.4c-4.3 19.7-11.2 33-19.2 37.3c-3.4 1.8-12 1.8-266 1.6l-262.5-0.3l-3.4-2.4c-7.2-5.2-13.6-18.9-17.8-38.1c-1.7-8.1-1.8-20.1-1.8-255.5v-247l2.2-9.6c4.4-19.3 11.5-32.9 19.3-37.1c3.3-1.7 12.5-1.8 265-1.8zm258.4 8h-517.1l-4.4 2.3c-8.6 4.5-15.9 19.2-19.4 39.2c-1.4 7.8-1.6 21.3-1.6 102.5c0.1 51.4 0.4 112.7 0.7 136.3l0.7 42.7l8.1 2.5c28.5 8.6 60.9 12.3 92.1 10.5c23.4-1.4 21.5-0.5 21.5-10.5v-8.3l80-69.4c44-38.1 80.4-69.4 80.8-69.6c0.4-0.1 34.5 29 75.7 64.7l74.9 64.9l10.6 2.8c5.8 1.5 12.9 3.6 15.9 4.6c3 1 5.6 1.7 5.8 1.5c0.1-0.2-18.9-17.2-42.4-37.8c-23.6-20.7-64.7-56.8-91.5-80.3l-48.7-42.7l-93.3 81.8c-51.3 45-94.8 83-96.6 84.6c-3.8 3.1-9.4 3.6-12.9 1.2c-3.5-2.4-20.3-24.2-21.3-27.4c-0.9-3.1-0.3-6.3 1.5-9.2c0.6-0.8 46.7-41.5 102.5-90.4c65.2-57 103.1-89.6 106-90.9c3.5-1.6 6.5-2.1 14-2.1c8.4 0 10.1 0.3 15 2.8c3.6 1.8 17 12.9 38.5 31.8l33 29.1l0.5-28.3c0.5-29.5 0.8-31.7 5-33.9c2.6-1.4 61.5-1.4 64.1 0c4.9 2.7 4.9 2.7 4.9 67.2v60.3l31 27c26.3 22.9 31.2 27.6 32.2 30.8c0.9 3.1 0.9 4.4-0.4 7c-1.5 3.2-12.6 17.5-18 23.3l-2.9 3.1l15.8 6.4c8.7 3.5 26.8 11.9 40.3 18.6c13.5 6.8 24.5 12.3 24.6 12.3c0 0 0.4-66.3 0.7-147.4c0.5-101.1 0.4-151.3-0.3-159.8c-2.5-28.9-9.6-46-21.3-51.7zm-258.3 106c-5.5 0.1-8.9 0.7-12.4 2.2c-5.6 2.5-206.4 177.8-208.5 182c-1.8 3.8-0.5 6.2 10.3 19.9c8.8 11 9.8 11.9 12.9 11.9c2.3 0 4.6-0.9 6.8-2.8c1.8-1.5 45.5-39.7 97.1-84.9l93.8-82.3l48.2 42.3c157.9 138.5 145.4 127.8 149.5 127.5c3.4-0.3 4.5-1.3 13.4-12.3c5.3-6.6 10-13.1 10.3-14.4c0.3-1.3 0.1-3.6-0.5-5c-0.6-1.4-15.1-14.7-32.1-29.5l-30.9-26.8v-61.2c0-53.7-0.2-61.4-1.6-63.4c-1.5-2.2-1.6-2.2-32-2.2c-29.3 0-30.5 0.1-32.2 2c-1.5 1.8-1.8 5.5-2.2 33.4l-0.5 31.4l-35-30.9c-23.9-21.1-36.9-31.8-40.9-33.9c-5.1-2.6-7-3-13.5-3zm0 76c-0.3 0-36 30.7-79.3 68.2l-78.8 68.3v71c0 43.4 0.4 72.3 1 74.4c1.1 3.9 5.1 8.6 9.2 10.7c2.2 1.2 12.2 1.4 56.8 1.4h54v-112h74v112l55.3-0.2l55.2-0.3l3.3-2.4c1.7-1.4 4.1-4.3 5.2-6.6c1.9-4 2-6.2 2-76.2v-72l-78.6-68.1c-43.3-37.5-78.9-68.2-79.3-68.2zm0.4 186.4c-4.9 0-6.8 0.1-4.2 0.3c2.6 0.2 6.7 0.2 9 0c2.3-0.2 0.2-0.3-4.8-0.3z" />
	</g>
</svg>